<svg xmlns="http://www.w3.org/2000/svg" viewBox="25 95 450 270" role="img" aria-label="Deploy Sprint icon">
  <g transform="translate(0, 500) scale(0.1, -0.1)">
    <path fill="#ffffff" d="M4287 3831 c-66 -162 -153 -278 -382 -506 -208 -208 -284 -277 -450
-410 -225 -180 -418 -348 -546 -476 l-96 -95 -69 85 c-38 47 -69 89 -69 92 0
12 119 145 229 255 132 132 244 217 367 278 115 58 199 83 334 99 l109 12 88
105 c48 58 88 108 88 111 0 3 -45 12 -101 19 -307 41 -631 -90 -926 -374 -46
-43 -83 -76 -83 -73 0 10 51 99 75 132 59 81 26 64 -86 -42 -84 -81 -139 -152
-209 -272 l-42 -74 -42 79 c-88 168 -202 310 -308 382 -26 18 -49 32 -52 32
-3 0 14 -28 38 -62 64 -94 64 -107 -1 -51 -214 185 -413 280 -662 318 -155 24
-278 15 -444 -35 -42 -13 -79 -21 -80 -19 -84 105 -202 323 -243 448 -37 112
-49 89 -41 -78 7 -160 45 -309 108 -432 11 -23 18 -43 15 -46 -9 -9 -113 85
-148 133 -17 24 -33 42 -35 41 -5 -6 24 -83 59 -160 l31 -67 -55 -58 c-155
-163 -233 -348 -244 -583 -10 -186 17 -333 88 -486 177 -382 591 -617 992
-564 253 34 471 159 694 397 90 96 93 98 109 79 33 -42 133 -265 168 -377 l38
-117 32 67 c17 37 62 139 100 227 37 88 69 162 71 164 2 2 40 -31 86 -72 113
-104 211 -174 326 -234 133 -70 161 -75 72 -13 -193 134 -342 287 -600 615
-159 203 -156 199 -255 315 -16 19 -79 86 -140 148 -255 263 -499 394 -760
409 -60 3 -110 1 -125 -5 -25 -11 -25 -11 7 -11 43 -1 161 -27 214 -47 196
-73 340 -174 529 -371 93 -97 318 -357 359 -415 8 -13 30 -38 48 -57 l33 -35
-1 -236 c-1 -154 -4 -223 -10 -199 -12 52 -64 182 -107 267 -34 66 -36 74 -22
95 31 49 71 127 65 127 -4 0 -32 -21 -62 -47 l-55 -47 -26 35 c-78 100 -172
182 -422 369 -69 52 -152 117 -185 144 -34 28 -81 67 -105 86 -25 19 -63 51
-85 70 -22 20 -67 58 -100 85 -72 59 -225 206 -225 215 0 10 96 28 185 36 139
13 327 -30 479 -107 202 -104 431 -317 688 -644 26 -33 85 -107 130 -165 283
-363 537 -595 748 -687 128 -55 190 -67 335 -67 153 1 242 21 374 84 226 108
377 278 457 514 31 91 30 112 -3 56 -55 -95 -160 -208 -249 -270 -72 -50 -206
-113 -294 -136 -126 -34 -314 -34 -434 1 -184 53 -330 148 -519 337 -77 76
-137 142 -135 147 1 5 34 32 72 60 l69 51 30 -61 c35 -74 135 -182 210 -227
101 -61 188 -85 312 -85 90 -1 122 3 175 22 175 61 319 216 366 394 8 29 14
95 14 147 0 142 -38 263 -117 366 l-23 31 54 42 c142 110 266 298 302 456 6
28 3 27 -47 -26 -55 -57 -145 -129 -161 -129 -5 0 4 19 20 43 43 64 72 133 97
232 25 99 38 257 27 322 l-7 42 -28 -68z m-3365 -888 c18 -15 35 -28 37 -30 2
-1 -12 -26 -30 -55 -72 -112 -99 -204 -99 -339 0 -195 91 -368 247 -472 172
-114 374 -125 571 -31 103 49 215 160 261 257 18 37 36 67 41 67 13 0 121 -84
159 -124 32 -33 34 -37 21 -61 -18 -33 -156 -166 -240 -230 -35 -27 -91 -64
-125 -82 -72 -39 -64 -42 29 -8 132 48 273 134 372 227 l41 39 17 -25 16 -26
-76 -62 c-147 -122 -291 -197 -457 -240 -126 -32 -340 -30 -460 6 -154 46
-260 108 -364 214 -218 220 -271 578 -126 840 32 58 111 162 123 162 5 0 23
-12 42 -27z m3049 -199 c49 -107 62 -248 34 -359 -47 -179 -194 -315 -375
-347 -180 -31 -386 80 -468 253 -18 37 -32 72 -32 78 0 23 27 10 42 -21 30
-62 97 -126 166 -160 60 -29 76 -33 157 -33 79 0 97 4 145 29 84 42 133 88
171 158 32 60 34 68 34 163 0 88 -3 106 -27 155 -15 30 -34 65 -43 76 -15 21
-14 23 57 62 l73 41 23 -27 c13 -15 32 -45 43 -68z m-2808 40 c37 -19 67 -37
67 -40 0 -2 -10 -21 -23 -42 -43 -69 -52 -104 -52 -197 0 -76 5 -99 26 -145
84 -178 307 -258 484 -174 58 27 142 110 169 167 19 39 26 48 31 35 10 -24
-10 -77 -54 -145 -160 -248 -482 -281 -691 -71 -121 121 -166 291 -125 467 17
71 71 181 89 181 7 0 42 -16 79 -36z m2514 -106 c80 -87 82 -238 6 -329 -59
-70 -176 -106 -259 -79 -63 20 -129 75 -153 125 -12 25 -21 50 -21 57 0 7 22
25 48 39 l48 27 23 -49 c47 -104 174 -108 230 -9 12 21 21 49 21 64 0 24 -2
25 -25 14 -43 -19 -78 27 -59 77 6 15 100 85 115 85 3 0 15 -10 26 -22z
m-2270 -20 c51 -31 70 -57 64 -88 -5 -24 -34 -40 -63 -34 -24 5 -28 2 -28 -16
0 -12 9 -39 21 -60 61 -109 213 -89 243 33 l7 28 49 -27 c57 -31 61 -44 26
-106 -94 -170 -347 -167 -439 6 -29 55 -31 174 -3 226 23 43 46 70 60 70 5 0
34 -14 63 -32z M4306 3105 c-9 -14 -46 -57 -82 -95 l-65 -69 39 -53 c114 -155 164
-330 141 -495 -34 -258 -193 -446 -448 -534 -120 -41 -312 -45 -429 -8 -66 21
-41 1 35 -29 125 -48 169 -57 298 -57 137 1 193 12 317 65 327 140 521 449
478 762 -28 210 -97 369 -213 496 -22 23 -43 42 -47 42 -4 0 -15 -11 -24 -25z"/>
    <path fill="#5ae67a" d="M3605 2674 c-40 -27 -73 -54 -47 -40 17 10 50 -2 61 -23 6 -11 7 -42
1 -79 -13 -93 -58 -141 -133 -142 -57 0 -92 23 -119 79 l-23 50 -48 -30 c-26
-16 -47 -34 -47 -39 0 -20 38 -85 66 -114 39 -39 121 -76 170 -76 171 0 294
167 240 325 -15 47 -60 115 -74 115 -4 0 -25 -12 -47 -26z M1310 2661 c-73 -103 -63 -239 25 -326 96 -96 246 -98 344 -5 36 35
71 95 71 124 0 6 -21 23 -47 38 l-48 27 -15 -42 c-28 -75 -117 -110 -188 -73
-37 19 -68 79 -75 144 -5 44 -3 56 13 72 11 11 26 20 33 20 15 1 -64 50 -80
50 -6 0 -21 -13 -33 -29z"/>
  </g>
</svg>
